<svg xmlns="http://www.w3.org/2000/svg" viewBox="0 0 305 305" shape-rendering="geometricPrecision"><g transform="translate(0, 305) scale(1, -1)scale(1.19140625,1.19140625)" stroke-width=".05%"><g fill="#7f271e"><path d=" M 119.27 28.27 C 143.60 26.01 168.65 33.07 188.17 47.78 C 206.93 61.70 220.40 82.45 225.66 105.19 C 229.96 124.26 228.77 144.59 221.91 162.91 C 213.81 184.62 197.91 203.37 177.69 214.73 C 162.11 223.72 144.02 228.27 126.04 227.76 C 100.33 227.33 74.89 216.45 57.00 197.96 C 41.06 182.04 31.08 160.45 28.78 138.08 C 26.74 118.50 30.63 98.35 39.93 80.98 C 55.21 51.50 86.17 30.92 119.27 28.27 Z"/></g></g><g transform="scale(1.19140625,1.19140625)" stroke-width=".05%"><g fill="#1a181b"><path d=" M 75.45 41.44 C 77.41 38.42 79.01 34.08 83.37 34.33 C 83.15 46.65 84.31 58.95 86.37 71.08 C 89.68 82.63 89.66 95.01 94.49 106.12 C 93.23 107.34 91.97 108.55 90.76 109.81 C 84.25 103.35 77.77 96.75 72.62 89.13 C 67.05 78.14 60.28 67.66 56.42 55.89 C 55.63 49.76 58.05 43.43 62.04 38.80 C 62.68 38.97 63.95 39.29 64.58 39.46 C 66.38 45.69 68.71 51.76 70.76 57.91 C 73.50 67.98 77.15 77.89 82.40 86.93 C 82.44 87.63 82.52 89.04 82.56 89.75 C 83.07 90.00 84.08 90.49 84.58 90.73 C 84.68 91.33 84.88 92.53 84.97 93.14 C 86.65 96.72 88.53 100.22 90.91 103.39 C 91.09 103.51 91.45 103.76 91.63 103.88 C 88.45 99.50 85.72 94.70 84.41 89.41 C 80.34 81.31 76.94 72.88 75.32 63.93 C 73.77 56.63 71.84 48.44 75.45 41.44 Z"/><path d=" M 174.27 36.06 C 174.03 33.37 177.23 34.41 178.30 35.71 C 181.39 39.46 184.09 43.96 184.25 48.94 C 184.48 58.49 181.37 67.66 178.95 76.78 C 174.50 85.76 172.04 95.67 166.24 103.96 C 168.57 101.00 170.68 97.81 172.05 94.28 C 174.59 87.70 178.61 81.80 180.95 75.14 C 181.58 73.43 182.33 71.76 183.20 70.16 C 184.55 66.48 185.46 62.67 186.60 58.93 C 188.43 52.36 191.44 46.16 192.80 39.45 C 194.12 39.35 195.85 38.58 196.68 40.11 C 199.98 44.26 201.54 49.78 201.43 55.04 C 198.02 66.79 191.06 77.01 185.71 87.91 C 180.68 96.18 173.56 102.87 167.02 109.91 C 165.78 108.64 164.53 107.39 163.29 106.13 C 165.51 99.85 167.59 93.35 167.61 86.63 C 166.26 93.42 165.46 100.43 162.28 106.71 C 161.52 106.18 160.76 105.65 160.00 105.12 C 159.95 100.12 161.84 95.53 163.54 90.93 C 164.60 86.00 165.74 81.08 167.19 76.24 C 167.73 78.45 168.30 80.66 168.83 82.89 C 172.23 67.52 174.50 51.83 174.27 36.06 Z"/><path d=" M 47.65 56.51 C 48.16 56.78 48.67 57.04 49.19 57.31 C 52.57 63.05 55.24 69.26 59.49 74.45 C 62.79 78.60 65.27 83.34 68.74 87.36 C 75.42 96.01 82.97 103.96 90.73 111.63 L 88.37 111.50 C 88.45 111.98 88.60 112.95 88.68 113.43 C 85.69 114.43 83.15 112.97 80.78 111.33 C 74.54 106.99 68.51 102.31 63.02 97.03 C 55.88 89.09 49.40 80.36 45.40 70.38 C 43.13 65.83 45.37 60.61 47.65 56.51 Z"/><path d=" M 204.07 65.15 C 205.63 62.42 207.01 59.37 209.10 57.07 C 209.48 57.14 210.26 57.29 210.65 57.36 C 212.46 61.26 214.24 66.01 212.30 70.17 C 208.34 80.32 201.74 89.17 194.40 97.11 C 188.57 102.85 182.03 107.75 175.32 112.39 C 173.37 113.69 171.03 114.29 168.97 112.83 L 168.35 112.75 C 168.32 112.12 168.24 110.85 168.21 110.22 C 171.79 107.47 174.33 103.68 177.54 100.54 C 183.10 95.04 187.88 88.82 192.54 82.57 C 196.06 76.54 201.14 71.53 204.07 65.15 Z"/><path d=" M 38.80 73.23 C 39.74 73.50 40.94 73.36 41.60 74.23 C 46.61 79.70 51.70 85.18 56.04 91.18 C 65.06 99.38 73.31 108.94 84.51 114.29 C 85.08 114.39 86.23 114.60 86.80 114.70 C 85.81 117.08 84.77 119.44 83.80 121.83 C 80.63 121.11 77.44 120.08 74.76 118.18 C 72.55 116.54 70.21 115.11 67.85 113.71 C 66.73 113.06 65.66 112.36 64.57 111.68 C 59.13 110.77 55.22 106.54 51.01 103.35 C 44.06 97.74 38.06 90.19 37.12 81.03 C 36.99 78.33 38.05 75.77 38.80 73.23 Z"/><path d=" M 214.65 75.58 C 215.64 74.46 217.52 72.12 218.98 73.96 C 222.51 80.49 219.19 87.92 215.80 93.75 C 210.93 100.12 204.68 105.36 198.02 109.78 C 190.93 113.33 183.92 117.03 177.02 120.93 C 176.26 121.20 174.73 121.73 173.96 122.00 C 173.09 119.58 171.98 117.25 171.07 114.84 C 172.36 114.59 173.59 114.16 174.75 113.56 C 183.24 108.80 190.40 102.08 197.11 95.12 C 203.72 89.34 208.61 81.93 214.65 75.58 Z"/><path d=" M 90.03 76.70 C 93.08 82.37 92.86 89.03 95.48 94.84 C 97.05 98.24 97.44 102.01 97.72 105.70 C 99.70 103.93 102.17 102.79 104.88 103.43 C 108.23 100.56 111.99 98.13 116.22 96.80 C 116.72 97.12 117.70 97.76 118.19 98.08 C 110.16 100.95 102.89 106.30 98.86 113.94 C 93.03 124.14 93.21 137.50 99.57 147.43 C 108.77 164.31 133.29 168.53 148.60 157.68 C 155.42 153.30 159.65 145.90 162.08 138.36 C 163.73 130.23 163.04 121.37 158.87 114.07 C 154.97 106.70 148.05 101.16 140.18 98.52 C 140.29 98.02 140.53 97.04 140.65 96.54 C 145.21 98.02 149.39 100.43 153.03 103.54 C 156.71 102.07 158.74 105.79 161.68 106.98 C 164.10 108.89 166.26 111.10 168.26 113.44 C 168.41 114.91 168.67 116.37 169.18 117.76 C 171.60 125.86 172.66 134.49 170.83 142.82 C 169.06 147.77 167.78 153.15 164.20 157.17 C 159.83 162.81 154.32 167.42 148.48 171.46 C 144.81 174.70 139.90 176.02 136.16 179.16 C 133.45 182.16 130.38 185.29 129.85 189.51 C 129.37 189.38 128.41 189.12 127.93 188.99 C 126.86 185.75 124.95 182.94 122.64 180.46 C 119.36 176.37 113.89 175.32 109.96 172.07 C 106.98 169.74 103.69 167.78 101.01 165.07 C 96.55 160.61 91.40 156.35 89.41 150.12 C 84.67 139.65 85.34 127.56 88.79 116.82 C 89.16 115.50 89.41 114.14 89.64 112.80 C 91.65 110.99 93.58 109.09 95.64 107.34 C 92.03 100.40 91.17 92.56 89.55 85.03 C 89.05 82.26 89.62 79.44 90.03 76.70 Z"/><path d=" M 31.77 94.14 C 36.89 95.10 40.66 99.05 45.12 101.46 C 51.08 104.55 56.21 109.14 62.54 111.53 C 63.77 113.07 65.31 114.30 67.00 115.32 C 67.07 115.58 67.22 116.11 67.29 116.37 C 70.02 117.79 72.81 119.18 75.87 119.74 L 76.02 119.78 C 78.59 120.84 81.16 121.87 83.76 122.86 C 81.23 127.75 81.58 133.24 81.38 138.56 C 79.56 138.50 77.74 138.40 75.92 138.30 C 68.28 138.25 60.66 137.79 53.03 137.73 C 46.31 136.68 37.76 137.05 33.65 130.55 C 32.36 127.38 32.37 123.87 32.17 120.51 C 41.57 119.75 49.78 125.04 58.90 126.11 C 65.87 126.99 72.53 130.08 79.63 129.75 C 73.12 126.85 65.65 127.54 58.94 125.24 C 48.52 122.55 37.82 117.07 32.83 107.03 C 30.56 103.11 31.09 98.41 31.77 94.14 Z"/><path d=" M 211.79 101.81 C 216.40 99.30 220.42 95.73 225.41 93.93 C 227.36 99.04 226.65 104.97 223.47 109.44 C 220.21 114.88 214.81 118.48 209.40 121.51 C 205.05 123.38 200.44 124.57 195.94 126.02 C 189.84 127.29 183.47 127.51 177.56 129.63 C 185.00 130.28 191.97 126.90 199.25 125.99 C 204.38 125.43 209.19 123.50 214.05 121.87 C 217.75 120.57 221.72 120.72 225.58 120.49 C 225.44 125.45 225.22 131.49 220.37 134.29 C 209.95 139.02 198.20 137.33 187.12 138.27 C 183.60 138.29 180.08 138.34 176.57 138.68 C 175.26 133.41 176.29 127.79 174.11 122.70 C 174.59 122.55 175.57 122.26 176.05 122.11 C 180.88 120.59 186.05 119.33 189.88 115.80 C 192.74 113.18 196.07 111.21 199.48 109.41 C 203.78 107.19 207.53 104.09 211.79 101.81 Z"/><path d=" M 84.65 152.75 C 81.58 140.39 80.81 126.37 87.86 115.14 C 88.17 119.62 85.57 123.57 85.59 128.01 C 85.52 133.38 84.86 138.84 85.97 144.15 C 88.89 154.47 96.46 162.57 104.73 169.02 C 111.66 175.15 122.66 177.44 125.84 187.15 C 114.25 181.26 102.01 175.76 92.95 166.13 C 89.91 161.85 87.71 157.10 85.22 152.51 L 84.65 152.75 Z"/><path d=" M 170.25 119.96 C 170.85 119.44 171.45 118.93 172.05 118.41 C 175.84 129.57 176.77 142.05 172.34 153.17 C 170.64 155.26 169.81 157.86 168.38 160.10 C 168.50 160.39 168.74 160.96 168.86 161.24 C 166.25 161.70 165.95 164.68 164.38 166.35 C 156.77 174.71 146.36 179.64 136.51 184.78 C 134.90 185.63 133.27 186.44 131.67 187.29 C 134.10 180.43 140.63 176.49 146.79 173.40 C 157.35 166.45 167.49 157.36 171.43 144.95 C 173.11 136.74 172.99 127.92 170.25 119.96 Z"/><path d=" M 42.07 139.28 C 48.05 139.25 54.02 139.22 60.00 139.17 C 63.58 138.30 67.31 138.42 70.91 139.08 C 74.37 139.70 77.88 139.00 81.37 139.21 C 81.53 141.85 81.55 144.50 81.46 147.14 C 80.44 147.27 78.40 147.53 77.37 147.66 C 76.06 146.59 74.43 146.19 72.75 146.28 C 73.98 146.83 75.22 147.35 76.43 147.93 C 68.36 149.64 60.20 151.19 51.95 151.70 C 48.20 152.14 44.59 150.72 41.11 149.52 C 37.80 148.40 36.61 144.81 36.48 141.63 C 38.25 140.67 40.01 139.42 42.07 139.28 Z"/><path d=" M 176.37 139.18 C 182.99 139.97 189.48 138.19 196.08 138.75 C 204.18 140.41 212.89 137.47 220.65 140.87 C 220.69 142.59 220.63 144.32 220.58 146.05 C 217.79 150.17 212.52 150.96 208.00 151.78 C 199.11 151.47 190.28 149.89 181.61 147.94 C 182.65 147.41 183.69 146.88 184.72 146.33 C 183.18 146.39 181.78 146.96 180.45 147.69 C 179.42 147.58 177.36 147.37 176.33 147.26 C 176.25 144.57 176.24 141.87 176.37 139.18 Z"/><path d=" M 51.96 152.58 C 62.11 151.77 72.10 149.73 82.07 147.73 C 82.91 149.38 83.66 151.09 83.97 152.93 C 84.44 153.37 85.38 154.23 85.84 154.67 C 78.70 158.47 70.64 159.79 62.94 162.00 C 57.54 164.65 51.34 163.42 45.74 162.17 C 43.37 161.62 42.70 159.07 42.29 157.01 C 45.13 154.82 48.30 152.90 51.96 152.58 Z"/><path d=" M 175.97 148.07 C 186.66 149.72 197.24 152.06 208.05 152.87 C 210.93 153.90 213.66 155.43 215.58 157.88 C 214.66 159.40 214.04 161.45 212.17 162.05 C 206.38 163.42 199.95 164.70 194.37 161.89 C 186.65 160.00 178.95 157.97 171.56 154.99 C 172.69 153.92 174.04 153.42 175.61 153.51 C 175.63 152.44 173.63 152.55 173.01 152.22 C 174.07 150.90 174.71 149.22 175.97 148.07 Z"/><path d=" M 83.92 155.90 C 85.25 156.45 86.54 157.03 87.85 157.65 C 86.95 158.79 85.98 159.88 85.08 161.03 C 86.18 160.64 87.17 160.04 88.14 159.40 C 89.50 162.17 93.04 164.84 91.47 168.27 C 89.55 170.59 87.42 172.86 84.67 174.21 C 81.75 178.17 77.53 180.88 73.56 183.66 C 69.97 185.29 65.55 186.30 61.87 184.38 C 60.73 183.84 59.75 182.56 59.71 181.28 C 61.70 178.63 63.62 175.33 67.10 174.55 C 74.95 172.06 81.66 167.13 87.91 161.92 C 84.47 164.09 80.91 166.08 77.66 168.52 C 72.59 172.54 66.02 173.70 59.91 175.27 C 57.49 176.14 55.14 174.65 52.78 174.23 C 51.36 172.52 50.01 170.75 48.77 168.91 C 51.49 166.94 54.71 165.91 57.88 164.92 C 63.25 163.11 68.80 161.82 74.08 159.76 C 77.50 158.89 80.88 157.72 83.92 155.90 Z"/><path d=" M 171.96 155.43 C 180.70 159.43 190.06 161.78 199.17 164.76 C 202.55 165.68 205.90 166.86 208.80 168.89 C 206.97 172.95 202.80 176.36 198.15 175.38 C 191.85 173.72 185.05 172.62 179.83 168.42 C 176.20 165.84 172.26 163.70 168.82 160.84 C 169.64 160.58 171.29 160.07 172.11 159.81 C 171.29 159.98 169.66 160.30 168.84 160.46 C 169.82 158.75 170.86 157.07 171.96 155.43 Z"/><path d=" M 166.96 162.29 C 168.29 162.43 169.63 162.57 170.97 162.71 C 176.70 168.07 183.56 172.22 191.01 174.70 C 194.37 175.64 195.90 179.12 198.21 181.43 C 197.28 183.11 196.16 184.88 194.02 184.97 C 185.56 187.02 178.58 180.22 173.32 174.55 C 170.17 172.70 167.56 169.99 165.40 167.08 C 165.71 165.42 166.38 163.86 166.96 162.29 Z"/><path d=" M 72.20 186.24 C 78.72 179.50 87.19 174.76 92.85 167.20 C 94.33 168.51 95.75 169.90 97.21 171.25 C 96.36 175.43 92.65 177.90 90.26 181.14 C 87.53 184.81 85.02 188.87 81.15 191.44 C 78.81 192.24 76.43 193.01 73.96 193.29 C 72.45 192.74 71.05 191.95 69.65 191.16 C 70.43 189.49 70.98 187.65 72.20 186.24 Z"/><path d=" M 160.07 172.03 C 161.65 170.55 162.85 168.29 165.00 167.63 C 167.89 171.12 171.22 174.15 174.88 176.80 C 179.25 181.58 186.11 184.52 187.99 191.18 C 186.66 191.89 185.35 192.64 183.95 193.20 C 181.27 193.21 178.75 192.11 176.20 191.39 C 174.00 189.27 171.89 187.06 169.88 184.75 C 167.19 180.07 162.90 176.62 160.07 172.03 Z"/><path d=" M 97.73 172.01 C 99.59 173.16 101.45 174.33 102.98 175.92 C 102.19 176.85 101.39 177.77 100.57 178.68 C 100.48 179.16 100.30 180.13 100.21 180.62 C 96.23 185.35 93.69 191.06 90.28 196.18 C 87.96 199.02 84.05 199.53 80.61 199.58 C 79.68 198.08 78.32 196.22 79.58 194.48 C 82.27 190.92 86.31 188.57 88.55 184.64 C 91.06 180.01 95.75 176.97 97.73 172.01 Z"/><path d=" M 154.97 175.04 C 156.58 174.13 158.17 173.19 159.78 172.28 C 161.99 176.64 166.13 179.54 168.48 183.80 C 171.13 188.82 177.14 191.19 178.97 196.74 C 178.27 197.66 177.59 198.59 176.91 199.52 C 173.82 199.52 170.51 199.12 168.06 197.05 C 165.42 193.50 163.39 189.54 161.11 185.76 C 159.11 182.15 155.83 179.22 154.97 175.04 Z"/><path d=" M 101.59 178.33 C 102.22 177.79 103.47 176.71 104.09 176.17 C 106.35 177.11 108.54 178.26 110.35 179.94 C 109.51 182.15 108.67 184.36 108.04 186.65 C 105.67 191.10 103.36 195.59 100.98 200.04 C 98.89 203.40 94.47 204.10 90.89 203.14 C 89.45 201.14 90.18 198.44 91.15 196.41 C 93.48 191.81 96.25 187.46 99.07 183.15 C 99.97 181.58 101.56 180.27 101.59 178.33 Z"/><path d=" M 147.29 179.72 C 149.45 178.51 151.54 176.19 154.18 176.57 C 157.08 179.57 158.65 183.53 161.00 186.93 C 163.36 191.22 166.58 195.18 167.73 200.02 C 168.09 202.01 166.83 203.49 164.81 203.51 C 161.57 203.73 157.75 202.60 156.32 199.41 C 153.02 192.99 149.18 186.76 147.29 179.72 Z"/><path d=" M 111.02 181.09 C 114.08 181.84 116.70 183.98 118.91 186.14 C 118.77 189.45 115.67 191.58 114.69 194.63 C 112.80 197.99 113.19 202.49 109.93 205.04 C 107.51 207.68 103.65 207.81 100.33 207.61 C 100.53 205.83 100.63 204.00 101.44 202.38 C 104.41 195.18 108.54 188.49 111.02 181.09 Z"/><path d=" M 138.08 186.86 C 140.30 184.30 143.23 182.52 146.09 180.77 C 149.13 187.13 152.04 193.55 155.13 199.88 C 156.35 202.29 157.09 204.89 157.49 207.56 C 152.17 208.60 145.88 205.70 144.75 200.09 C 143.92 195.10 141.05 190.82 138.08 186.86 Z"/><path d=" M 119.95 186.36 C 121.75 186.84 123.45 187.62 125.03 188.61 C 124.86 191.01 124.82 193.46 123.50 195.59 C 121.22 199.70 122.00 205.69 117.47 208.28 C 115.29 209.37 112.92 210.24 110.45 210.19 C 111.40 206.08 112.71 202.07 113.89 198.02 C 115.05 193.74 118.09 190.33 119.95 186.36 Z"/><path d=" M 132.46 188.59 C 134.00 187.78 135.58 187.02 137.19 186.32 C 139.23 189.21 141.23 192.15 142.81 195.32 C 144.60 200.07 145.58 205.07 147.37 209.81 C 143.89 210.34 140.13 208.86 137.82 206.23 C 135.85 202.52 135.66 198.14 133.63 194.44 C 132.49 192.69 132.71 190.57 132.46 188.59 Z"/></g><g fill="#1a181b"><path d=" M 127.65 99.48 C 128.99 102.97 130.00 106.57 130.85 110.20 C 128.85 110.14 126.85 110.10 124.85 110.07 C 125.92 106.58 126.81 103.04 127.65 99.48 Z"/><path d=" M 113.12 103.30 C 116.04 105.74 118.57 108.59 121.18 111.35 C 119.44 112.23 117.71 113.14 116.01 114.09 C 115.13 110.47 114.12 106.89 113.12 103.30 Z"/><path d=" M 134.90 111.04 C 137.14 108.22 139.93 105.89 142.42 103.30 C 141.66 106.87 140.70 110.39 139.77 113.92 C 138.15 112.96 136.45 112.12 134.90 111.04 Z"/><path d=" M 123.46 113.65 C 127.94 112.76 132.94 113.37 136.66 116.18 C 141.78 119.60 144.61 126.09 143.59 132.17 C 142.64 137.92 138.58 143.15 133.05 145.16 C 127.36 147.61 120.49 145.96 116.04 141.81 C 109.75 136.39 109.08 125.86 114.26 119.46 C 116.54 116.56 119.89 114.51 123.46 113.65 Z"/><path d=" M 102.54 113.86 C 105.73 114.79 108.91 115.75 112.16 116.44 C 111.33 117.98 110.50 119.52 109.68 121.06 C 107.14 118.82 104.73 116.44 102.54 113.86 Z"/><path d=" M 142.43 116.86 C 146.09 115.93 149.73 114.90 153.37 113.88 C 150.86 116.56 148.18 119.08 145.64 121.73 C 144.58 120.10 143.51 118.48 142.43 116.86 Z"/><path d=" M 98.57 128.47 C 101.91 127.82 105.21 126.97 108.42 125.83 C 108.29 127.64 108.17 129.46 108.05 131.27 C 104.88 130.37 101.71 129.45 98.57 128.47 Z"/><path d=" M 147.64 126.07 C 150.83 126.97 154.03 127.81 157.25 128.55 C 154.19 129.38 151.15 130.30 148.12 131.26 C 147.96 129.53 147.81 127.80 147.64 126.07 Z"/><path d=" M 108.50 137.04 C 109.23 138.35 109.96 139.66 110.70 140.96 C 108.04 141.86 105.37 142.72 102.62 143.32 C 104.55 141.19 106.57 139.16 108.50 137.04 Z"/><path d=" M 146.41 136.49 C 148.67 138.69 150.92 140.89 153.07 143.19 C 149.98 142.50 146.94 141.59 143.86 140.83 C 144.72 139.39 145.57 137.94 146.41 136.49 Z"/><path d=" M 115.30 145.53 C 116.65 146.37 118.00 147.21 119.36 148.05 C 117.29 150.13 115.22 152.20 113.08 154.21 C 113.85 151.32 114.65 148.44 115.30 145.53 Z"/><path d=" M 136.52 147.96 C 137.81 147.32 139.11 146.68 140.41 146.05 C 141.23 148.98 142.04 151.92 142.86 154.87 C 140.83 152.49 138.68 150.21 136.52 147.96 Z"/><path d=" M 125.43 149.44 C 126.94 149.47 128.44 149.49 129.94 149.61 C 130.02 152.53 128.72 155.24 127.59 157.87 C 126.88 155.05 126.19 152.24 125.43 149.44 Z"/></g></g></svg>
