<svg xmlns="http://www.w3.org/2000/svg" viewBox="0 0 305 305" shape-rendering="geometricPrecision"><g transform="translate(0, 305) scale(1, -1)scale(1.19140625,1.19140625)" stroke-width=".05%"><g fill="#214371"><path d=" M 132.23 22.06 C 133.28 18.73 134.23 15.38 135.17 12.01 C 135.55 12.64 136.31 13.88 136.69 14.50 C 138.58 14.48 140.47 14.47 142.37 14.45 C 142.84 14.91 143.79 15.84 144.26 16.30 C 144.73 15.51 145.67 13.93 146.14 13.14 C 144.23 18.50 145.02 24.08 146.65 29.39 C 148.46 29.41 150.28 29.44 152.10 29.47 C 154.59 25.86 157.28 22.40 159.83 18.84 C 162.41 19.89 165.00 20.93 167.59 21.98 C 167.37 26.53 166.56 31.01 165.52 35.44 C 167.00 35.45 168.49 35.46 169.98 35.47 C 172.63 32.76 175.28 30.06 177.95 27.38 C 180.48 28.11 182.99 28.89 185.48 29.72 C 185.46 31.18 185.45 32.63 185.44 34.09 C 185.04 34.58 184.25 35.55 183.85 36.04 C 183.84 36.73 183.81 38.10 183.79 38.79 C 183.43 39.22 182.72 40.10 182.36 40.53 C 182.27 41.73 182.19 42.92 182.12 44.11 C 183.35 44.77 184.60 45.40 185.92 45.88 C 189.12 44.03 191.42 41.04 193.99 38.44 C 195.32 38.49 196.65 38.53 197.98 38.58 C 199.78 39.88 201.63 41.11 203.52 42.26 C 203.49 42.86 203.42 44.07 203.39 44.68 C 201.15 47.15 199.13 49.79 197.29 52.56 C 197.24 53.74 197.19 54.91 197.14 56.08 C 198.29 56.71 199.41 57.43 200.65 57.91 C 204.58 56.07 207.87 52.93 212.15 51.83 C 214.73 52.93 216.61 55.10 218.64 56.95 C 218.58 57.61 218.45 58.93 218.39 59.59 C 217.13 61.22 215.96 62.92 214.90 64.68 C 214.06 65.01 213.22 65.35 212.39 65.69 C 212.41 67.64 212.44 69.60 212.47 71.55 C 216.82 71.59 221.17 71.58 225.52 71.57 C 226.83 74.53 228.17 77.49 229.46 80.47 C 226.40 82.34 223.68 84.69 221.24 87.31 C 222.16 89.57 222.98 91.86 223.72 94.19 C 227.65 94.05 231.66 94.15 235.39 95.55 C 235.30 96.45 235.13 98.25 235.05 99.16 C 235.47 99.60 236.31 100.50 236.73 100.95 C 236.61 101.59 236.37 102.89 236.25 103.53 C 232.66 105.17 229.32 107.29 226.10 109.56 C 226.12 111.97 226.14 114.37 226.16 116.78 C 230.58 116.39 235.08 116.15 239.41 117.33 C 239.23 121.65 239.21 125.98 239.37 130.30 C 234.92 131.44 230.37 132.12 225.79 132.48 C 225.22 134.74 223.61 137.30 225.33 139.46 C 228.30 143.70 234.03 144.04 238.49 145.87 C 237.72 149.45 236.89 153.02 236.10 156.60 C 231.98 156.74 227.85 156.79 223.72 156.78 C 222.37 158.74 221.05 160.73 219.75 162.72 C 222.85 164.75 226.35 166.52 228.53 169.63 C 229.89 171.31 228.19 173.27 227.77 175.00 C 227.70 175.72 227.56 177.15 227.49 177.87 C 222.65 177.89 217.82 177.49 213.14 176.24 C 212.32 177.97 211.47 179.68 210.60 181.38 C 212.44 184.48 214.63 187.36 217.27 189.82 C 217.01 194.01 215.24 199.09 210.92 200.49 C 206.07 199.40 201.95 196.38 197.58 194.15 C 196.96 195.73 196.00 197.25 195.92 198.98 C 197.18 203.05 200.09 206.30 202.31 209.87 C 199.58 211.85 197.02 214.13 193.96 215.63 C 190.53 214.22 187.67 211.79 184.73 209.58 C 182.98 209.55 181.23 209.51 179.48 209.49 C 179.40 210.81 179.32 212.13 179.25 213.45 C 179.63 213.90 180.40 214.80 180.79 215.25 C 180.79 215.91 180.79 217.22 180.79 217.88 C 181.18 218.38 181.96 219.37 182.35 219.87 C 182.38 221.36 182.40 222.86 182.43 224.37 C 179.63 225.94 176.81 227.50 174.01 229.07 C 171.51 224.87 168.85 220.76 165.89 216.86 C 164.17 217.85 162.45 218.83 160.73 219.81 C 161.32 220.78 161.92 221.75 162.52 222.72 C 162.88 226.25 163.57 229.73 164.48 233.15 C 161.36 234.01 158.26 235.30 154.97 235.15 C 151.57 232.06 151.01 227.10 149.39 223.01 C 148.80 223.06 147.64 223.15 147.05 223.20 C 145.79 224.39 144.52 225.59 143.26 226.79 C 143.47 231.10 143.51 235.49 142.11 239.64 C 139.25 239.60 136.39 239.58 133.53 239.54 C 132.99 238.83 132.45 238.12 131.92 237.42 C 131.61 233.09 130.62 228.86 129.95 224.59 C 128.01 225.37 126.03 226.04 123.99 226.55 C 122.53 230.19 121.22 233.91 120.30 237.74 C 119.70 238.37 119.10 239.01 118.50 239.65 C 115.37 239.61 112.25 239.58 109.12 239.55 C 109.22 234.57 109.23 229.60 109.20 224.63 C 107.75 224.59 106.31 224.56 104.87 224.53 C 103.14 226.97 101.41 229.40 99.61 231.79 C 99.61 232.62 99.63 234.30 99.64 235.13 C 98.92 235.17 97.47 235.23 96.74 235.26 C 95.90 234.68 95.05 234.09 94.21 233.51 C 92.65 233.49 91.10 233.48 89.55 233.48 C 89.60 230.60 89.66 227.73 89.71 224.86 C 90.43 223.12 91.13 221.38 91.83 219.64 C 90.28 218.65 88.73 217.65 87.19 216.65 C 84.11 219.85 80.96 223.00 77.85 226.18 C 77.18 226.18 75.85 226.17 75.19 226.17 C 73.56 224.57 71.93 222.98 70.28 221.41 C 71.85 217.41 73.18 213.32 74.70 209.30 C 73.13 208.87 71.58 208.35 69.97 208.12 C 66.38 209.58 63.70 212.67 60.06 214.06 C 57.45 213.12 55.21 211.44 52.82 210.08 C 55.18 205.67 59.11 201.39 57.78 195.97 C 53.20 196.79 48.91 198.69 44.54 200.23 C 42.37 197.91 40.18 195.60 37.99 193.30 C 40.53 189.54 44.23 186.34 45.87 182.09 C 44.67 180.41 43.15 179.02 41.69 177.58 C 38.45 178.95 35.15 180.15 31.80 181.23 C 30.18 177.88 28.21 174.72 25.94 171.77 C 29.01 169.13 32.30 166.77 35.48 164.26 C 35.46 162.58 35.44 160.90 35.42 159.21 C 34.62 158.29 33.82 157.37 33.03 156.45 C 32.56 156.93 31.64 157.89 31.18 158.37 C 27.71 158.35 24.23 158.33 20.76 158.31 C 19.86 154.86 18.79 151.46 17.53 148.13 C 21.68 146.25 25.71 144.12 29.58 141.73 C 29.51 139.33 29.45 136.93 29.39 134.53 C 24.86 134.37 20.36 133.75 15.98 132.59 C 16.00 128.88 16.00 125.17 15.99 121.47 C 19.96 120.94 23.85 119.92 27.82 119.40 C 27.81 116.54 27.80 113.69 27.79 110.84 C 24.17 109.26 20.63 107.48 17.27 105.40 C 17.33 102.77 17.38 100.13 17.40 97.50 C 18.16 96.87 18.91 96.23 19.67 95.60 C 23.76 95.63 27.86 95.67 31.95 95.72 C 32.67 93.89 33.49 92.08 33.91 90.15 C 31.09 86.92 27.02 85.24 23.43 83.05 C 25.29 79.71 27.01 76.28 28.64 72.82 C 30.13 73.27 31.61 73.75 33.09 74.23 C 35.47 74.83 37.85 75.44 40.21 76.13 C 41.64 74.14 43.10 72.18 44.59 70.24 C 43.78 69.84 42.97 69.45 42.16 69.06 C 40.30 66.68 38.12 64.49 36.79 61.75 C 37.31 58.18 40.13 55.64 42.45 53.12 C 45.26 55.72 48.64 57.62 52.44 58.31 C 53.77 56.94 55.11 55.59 56.46 54.24 C 54.03 51.08 52.06 47.60 50.13 44.13 C 52.61 42.40 54.98 40.52 57.28 38.56 C 57.87 38.57 59.06 38.58 59.65 38.58 C 63.23 41.25 66.94 43.72 70.70 46.10 C 72.12 44.72 73.53 43.34 74.96 41.97 C 74.36 40.83 73.75 39.70 73.13 38.57 C 73.05 37.45 72.95 36.32 72.86 35.19 C 72.29 33.49 71.64 31.79 71.45 29.99 C 73.88 27.55 77.44 25.75 80.95 26.64 C 83.49 29.16 85.10 32.40 86.92 35.44 C 88.80 35.44 90.67 35.44 92.55 35.44 C 92.59 33.52 92.62 31.59 92.66 29.67 C 92.18 29.27 91.20 28.46 90.72 28.06 C 90.89 25.54 90.75 22.94 91.51 20.50 C 93.71 17.97 97.34 17.70 100.41 16.99 C 102.00 20.46 103.55 23.95 104.70 27.59 C 105.33 28.25 105.97 28.91 106.60 29.57 C 107.83 29.50 109.06 29.44 110.30 29.37 C 111.29 25.01 112.25 20.58 111.62 16.08 C 112.29 14.87 112.95 13.65 113.61 12.43 C 114.22 13.13 114.83 13.83 115.44 14.53 C 117.68 14.56 119.93 14.58 122.17 14.59 C 123.84 18.82 125.07 23.22 125.57 27.75 C 127.45 27.79 129.33 27.83 131.22 27.87 C 131.77 26.57 132.32 25.26 132.88 23.96 C 132.72 23.49 132.39 22.54 132.23 22.06 M 118.26 65.25 C 96.70 68.10 77.39 83.24 69.42 103.47 C 62.09 121.85 63.65 143.89 74.38 160.64 C 81.65 172.32 92.94 181.37 105.83 186.12 C 121.84 191.81 140.20 191.07 155.40 183.32 C 166.77 177.66 176.43 168.51 182.41 157.28 C 191.52 140.86 192.47 120.23 185.16 102.96 C 179.30 88.60 167.76 76.71 153.68 70.26 C 142.68 65.11 130.24 63.79 118.26 65.25 Z"/><path d=" M 156.52 17.62 C 158.31 18.33 156.58 22.10 154.84 21.28 C 154.08 19.98 155.15 18.01 156.52 17.62 Z"/></g></g><g transform="scale(2.3828125,2.3828125)" stroke-width=".05%"><g fill="#6c4915"><path d="M62.22 30.09c.73-4.7 1.02-9.48 2.26-14.09.8 11.78 3.34 23.37 4.57 35.11-.05 1.21.62 2.21 1.3 3.15 4.26-3.78 8.88-7.19 13.6-10.38l.08 1.09-.77-.08c-1.13 1.69-2.18 3.45-3.65 4.87l-1.58-.59c1.73 2.19-.42 3.61-1.53 5.09l-.46-.35c.56-.69 1.67-2.06 2.23-2.74l-.77-.95c-2.33 2.01-3.97 6.02-7.16 6.37l-.66 1.78c-1.92-11.12-3.38-22.4-5.35-33.52-.66 10.94-.18 21.95-.33 32.92-1.13.29-2.24.62-3.35.97-2.23-.22-4.44-.01-6.55.73-9.73 1.09-19.37 2.81-29.11 3.84 2.93.96 6.03.29 9.05.45 7.91.22 15.82.07 23.73.22.86 2.12 2.46 4.43-.11 6.06l1.15.24c-.25 1.3-.15 2.5.74 3.51.79 9.35 2.87 18.56 3.51 27.92l.86-.02c-.02-10.47.15-20.95.08-31.42 1.58-.48 3.09-1.13 4.55-1.89.97 1.19 1.89 2.54 1.2 4.17 2.23 1.89 5.06 3.15 6.73 5.65l-3.17-1.08.79-.71-3.39-2.19c-.52.61-1.04 1.21-1.57 1.81-1.47 11.72-3.41 23.38-4.86 35.1-2.34-12.56-3.7-25.36-5.83-37.99-4.49 3.87-9.74 6.83-13.93 11.02l-.58-.36c1.2-1.54 2.37-3.11 3.4-4.78l1.12.94c-.95-2.88 1.7-4.79 3.31-6.68.76-1.34 3.16-2.64 1.25-4.11-12.02-2.03-24.25-3.02-36.15-5.64 12.15-.99 24.14-3.39 36.26-4.61.31-.36.91-1.09 1.22-1.45-3.63-4.1-6.25-9.05-10.27-12.79l-.11-.95c2 1.41 4.49 2.61 5.22 5.16l2.1-1.32-1.1 1.81.94 1.94c.44-.46.87-.93 1.3-1.41 2.14 1.22 4.08 2.77 5.57 4.74-.57-.32-1.72-.95-2.29-1.27-.47-.56-1.41-1.67-1.88-2.23-.35.59-.69 1.18-1.04 1.77 1.89.84 3.44 2.51 4.35 4.35.57-.37 1.15-.73 1.73-1.08.74-8.73 2.35-17.39 3.35-26.1m-7.09 39.93l-.36.65c-2.02 2.42-4.02 4.88-5.72 7.53 3.35-2.21 5.82-5.44 9-7.88-.61-.22-1.83-.67-2.44-.89l-.48.59z"/><path d="M72.54 58.48c.76-1.09 1.45-2.32 2.68-2.95-1.72.76-.96 2.2-.69 3.36 12.26 1.17 24.36 3.67 36.64 4.69-3.34.59-6.86 2.25-10.15.62l.49 1.37c-8.97.75-17.81 2.53-26.75 3.53-.22.33-.66.99-.87 1.32 3.69 4.33 6.86 9.08 10.34 13.58l-.84-.03c-.91-.95-1.9-1.84-3.13-2.35l.89-1.32c-1.33.35-2.58.11-3.75-.74l1.62-.88c-3.14-3.08-6.63-5.93-8.92-9.74l3.49 1.19c-.2-.62-.4-1.24-.6-1.87 9.23 0 18.44-2.65 27.71-3.27l.13-.92c-10.26.12-20.52-.18-30.78-.07l-.07-3.22c-1.45 1.96-.73 4.85-2.65 6.55-2.35 2.55-7.57 1.15-7.82-2.49-.83-2.81 1.74-5.61 4.48-5.83 1.74-.04 3.04 1.77 4.71 1.68.9-1.53 1.61-3.56 3.84-2.21m-11.67 3.66c.21 1.64-.3 3.78 1.51 4.71 1.13.14 2.27.23 3.41.25 1.32-1.53 2.52-3.96.57-5.54-1.62-1.86-3.92-.62-5.49.58z"/><path d="M61.65 63.96c.78-.79 1.57-1.58 2.36-2.36.81.79 1.6 1.58 2.39 2.39-.78.79-1.57 1.58-2.36 2.36-.8-.79-1.6-1.59-2.39-2.39z"/></g><g fill="rgb(0, 0, 0)" opacity="0.3"><path d="M32.46 60.11c2.97-1.59.21 3.31 0 0z"/><path d="M94.48 68.2c.65-.96 3.07-.8 2.89.61-.65.96-3.08.8-2.89-.61z"/><path d="M36.27 79.21c.49.52.49.52 0 0z"/><path d="M73.08 92.19c3.33.18-1.57 2.97 0 0z"/></g><g fill="#6d9098"><path d="M42.31 31.34c5.98-3.69 12.83-6.25 19.93-6.25-.83 1.55-.79 4.6-3.19 4.46-9.31.93-18.07 6.41-23.26 14.15-.17.04-.49.11-.65.15 1.77-4.05 5.6-6.6 8.91-9.33-.27-1.19-1.22-2.1-1.74-3.18m14.65-5.28l-.04 3.24c.76-.06 2.28-.2 3.04-.26.57-1.12 1.13-2.25 1.68-3.38-1.56.14-3.12.27-4.68.4zM66.92 24.9c11.58.85 22.32 7.04 29.36 16.18l-1.28.55.06-1.63h-1.03l-.08-.6c-2.61-2.49-5.06-5.16-7.89-7.4-.62.55-1.85 1.67-2.47 2.23 4.47 2.4 7.62 6.32 10.54 10.37.61-.74 1.84-2.22 2.45-2.96 3.4 6.07 6.75 12.69 6.15 19.87-.76.08-1.53.1-2.3.05l-.68-.21-.43-.62c-1.05-2.29-.83-4.87-1.69-7.24-2.43-7.62-7.58-14.5-14.49-18.57-4.35-3.91-10.38-4.78-15.9-5.9-.12-1.38-.22-2.75-.32-4.12m.48.83c.13 2.46 1.43 3.83 3.97 3.66.01-.84.05-2.5.07-3.33-1.01-.09-3.03-.25-4.04-.33m32.07 31.31c-.29 1.05.02 2.01.92 2.87 1.34 1.08 2.45-1.48 1.5-2.38-.61-.12-1.82-.37-2.42-.49z"/><path d="M68.28 41.35c.37-3.53 1.38-6.96 2.31-10.38-.72 3.47-.75 7.14-2.31 10.38zM31.71 41.81c2.79-3.7 5.67-7.91 10.15-9.61-3.41 3.42-7.71 6.21-9.94 10.7.52.29 1.55.88 2.07 1.18l.88.57c-3.28 4.74-5.06 10.3-5.59 16.01-1.41.54-2.82 1.04-4.24 1.52.09-7.28 2.75-14.31 6.67-20.37m-5.62 15.15c-.16 1.6-.33 3.19-.5 4.79 2.14-.77 3.8-2.28 3.88-4.68-.84-.03-2.53-.08-3.38-.11zM58.29 31.98c.31 1.61.57 3.23.84 4.85.46 1.87.98 3.77.64 5.71-1.06-3.41-1.15-7.03-1.48-10.56zM54.37 33.29c.58 1.13 1.11 2.3 1.34 3.56 1.5 2.67.63 7.16 4.36 7.99-.27.21-.82.63-1.1.84-2.58.67-4.83 2.13-7.09 3.5-3.27-2.25-5.31-5.76-7.6-8.91l.17-.33c2.35 2.93 4.67 5.91 7.54 8.36.07-.52.21-1.56.27-2.08-1.72-3.05-3.69-5.96-5.26-9.1 1.11 1.54 2.14 3.14 3.21 4.71 1.07 1.62 2.16 3.23 3.22 4.87.32-.32.95-.94 1.26-1.26l.58-.28c.45-.06 1.36-.18 1.81-.23.01-4.08-2.61-7.61-2.71-11.64z"/><path d="M54.73 43.83c-1.89-2.66-4.08-5.99-4.36-9.44 1.61 3.07 2.95 6.28 4.36 9.44zM68.65 45.23c2.6-3.27 3.56-7.47 5.25-11.24-.16 3.92-2.34 7.29-3.15 11.06 2.91.7 2.88-2.81 3.95-4.58 1.25-1.61 1.54-3.75 2.95-5.23-.44 3.92-3.41 6.84-4.44 10.56.42.17 1.26.5 1.68.66 1.92-2.7 3.76-5.46 5.59-8.23l.34.01c-1.81 2.9-3.67 5.78-5.14 8.87l1.31.73c1.65-1.86 3.11-3.88 4.91-5.59 1.07-.89 1.19-2.8 2.73-3.09-2.21 3.73-4.81 7.33-8.19 10.07-2.51-1.51-5.08-2.9-7.79-4zM39.32 41.24c2.79.9 4.51 3.67 6.52 5.66-2.29-1.73-4.62-3.48-6.52-5.66zM84.85 44.29c.78-1.06 1.76-2.02 3.11-2.27-1.79 2.17-3.86 4.08-5.99 5.9.88-1.27 1.88-2.45 2.88-3.63zM37.86 45.22c2.57 1.74 5.37 3.12 7.81 5.04.44.37 1.31 1.13 1.74 1.51l2.08-1.16c-1.06 3.01-3.24 5.52-3.87 8.7-.64.06-1.29.11-1.94.17-2.82-.78-5.57-1.87-8.48-2.25-1.03-.34-2.08-.64-3.12-.94 2.75.18 5.44.75 8.07 1.55 1.64.45 3.28.55 4.92.3-1.17-2.29-3.89-2.44-6.01-3.33-2.04-.56-3.69-2-5.77-2.47 4.2.11 7.66 2.98 11.74 3.91.17-.46.49-1.39.65-1.85-2.9-1.85-6.25-2.98-8.92-5.19 2.34.37 4.37 1.69 6.36 2.88 1.39.85 3.2 3.07 4.04.44-3.01-2.54-6.28-4.77-9.3-7.31zM78.56 51.26c5.07.71 7.75-5.06 12.07-6.03-2.91 2.73-6.47 4.59-9.63 7.03.85 1.34 1.66 2.71 2.53 4.05 3.77-1.18 7.22-3.59 11.17-3.97-2.98 1.82-6.42 2.52-9.58 3.91-1.14.4-1.6 1.23-1.37 2.49 4.07-.93 8.14-1.91 12.27-2.53-3.95.96-7.81 2.22-11.73 3.28-.38-.03-1.14-.09-1.52-.13-.84-2.97-2.46-5.59-4.21-8.1zM54.96 51.52c.89-1.14 2.64-2.3 4.11-2.02.69 1.76-3.38 3.83-4.11 2.02zM68.95 49.48c1.94.25 3.56 1.27 4.76 2.81-2.24.28-3.66-1.14-4.76-2.81z"/><path d="M83.16 53.78c2.67-1.81 5.44-4.1 8.7-4.77-2.64 2-5.56 3.73-8.7 4.77zM51.49 54.97c1.79.77-.22 4.84-2.01 4.09-.26-1.47.88-3.19 2.01-4.09zM76.09 55.11c1.62-.17 2.97 2.52 2.66 3.91-1.79.5-3.16-2.47-2.66-3.91zM94.13 60.54c1.13-.55 2.27-.52 3.44.09l.08.46c-.88.66-3.38.9-3.52-.55zM83.29 64.64c4.55-1.05 9.31-.24 13.93-.18-4.63.3-9.3.57-13.93.18zM24.9 66.92c1.14.08 2.28.18 3.43.28 1.33 1.93 3.83.98 5.76 1.45-1.53.02-3.06-.03-4.59-.17.2 5.55 2.56 10.59 5.24 15.33-.96.77-1.91 1.55-2.84 2.35 3.18 3.51 6.36 7.07 10.12 9.97.64-.44 1.93-1.33 2.58-1.78-3.48-2.53-6.51-5.6-9.4-8.76 1.3-1.08 2.77 2.5 4.02 3.18 4.58 5.09 10.87 8.28 17.44 9.95.28-.42.83-1.27 1.11-1.69l-1 2.93c1.03-.21 3.09-.65 4.12-.86.3 1.48.57 2.97.69 4.48-4.92-.53-9.73-1.8-14.27-3.75-12.69-5.95-21.44-18.96-22.41-32.91m.85.49c.08 1.04.25 3.11.33 4.15.8 0 2.41-.01 3.22-.02.71-2.81-1.08-3.82-3.55-4.13m31.59 32.9c-1.78 2.3 3.56 2.8 2.99.27-.75-.06-2.24-.2-2.99-.27zM99.5 67c1.49.23 2.98.43 4.47.68l-1.55.42c.74 4.67-1.1 9.19-2.99 13.34-4.35 9.24-12.55 16.5-22.19 19.83-3.14 1.3-6.64 1.24-9.76 2.58l-.33-4.26c1.3-.3 3.89-.4 3.19-2.45-1.18-3.36-1.56-6.94-2.1-10.44 1.78 3.86 1.04 8.48 3.44 12.11 7.99-2 15.01-6.72 20.12-13.15-.03-.29-.08-.87-.1-1.16 5.62-3.91 6.13-11.42 7.8-17.5m.88 4.48c1.56-.41 2-1.44 1.32-3.1-1.79-1.52-2.78 2.27-1.32 3.1M83.96 94.22c.15 1.22 1.82 1.49 2.68 2.16l.41-1.08c3.76-2.33 6.5-5.78 9.18-9.21-.49-.52-1.48-1.58-1.97-2.11-3.16 3.68-6.67 7.04-10.3 10.24m-16.09 7.16c.71 1.93 4.53.25 2.98-1.54-1.54-.32-2.53.19-2.98 1.54z"/><path d="M31.11 72.68c4.62-1.48 9.26-2.97 14.04-3.81 1.3 2.86 2.81 5.62 4.31 8.39l-2.3-.28-.67 1.57c-.2-1.34.11-2.69.42-3.99-1.33.51-2.64 1.04-3.95 1.6-1.5 1.44-3.42 2.55-5.59 2.43 2.91-1.61 5.95-2.99 8.72-4.83-.3-.39-.9-1.16-1.19-1.54-3.14 1.62-6.61 2.4-9.91 3.6 2.93-2.36 7.08-2.48 10.24-4.63-.81-.46-1.62-.92-2.42-1.38-3.85 1.15-7.64 2.75-11.7 2.87zM49.44 69.54c1.68-.48 4.2 2.86 2.08 3.69-1.29-.6-2.45-2.25-2.08-3.69zM78.29 69.31c1.46.82-.66 4.46-2.22 3.78-.72-1.48.84-3.32 2.22-3.78zM78.78 76.77c1.8-2.44 3.25-5.11 4.1-8.03 4.76.93 9.28 2.81 14.06 3.64-1.46-.04-2.92.04-4.37.17l.41-.84c-2.92-.54-5.82-1.21-8.73-1.85-.71 1.35-1.35 2.73-1.98 4.12 3.46 2.05 7.24 3.48 10.46 5.91-2.73-.22-4.56-2.6-7.34-2.8l.79-.64c-1.7-.19-4.04-3.19-5.17-.57 1.39 1.19 2.83 2.33 4.23 3.52.56.02 1.68.07 2.24.1.04.57.1 1.72.14 2.29.62.25 1.88.75 2.5 1.01-.58-.17-1.74-.51-2.31-.67-2.6-2.32-5.45-4.92-9.03-5.36z"/><path d="M84.19 72.23c3.35.66 6.37 2.59 9.66 3.58-3.5-.1-6.76-2.13-9.66-3.58zM54.46 75.71c2.16.31 4.16 1.55 5.1 3.57-1.96-.77-4.2-1.42-5.1-3.57zM68.82 79.07c1.03-1.83 2.79-3.11 4.91-3.37-.82 2.11-2.94 2.81-4.91 3.37zM39.99 80.99c1.66-.83 2.99-2.44 4.83-2.81-1.3 2.41-4.42 3.17-6.53 4.8.42-.5 1.27-1.49 1.7-1.99zM51.47 78.87c2.57 1.56 5.03 3.41 8.06 3.95.02.49.05 1.46.06 1.95-.51-.33-1.02-.66-1.53-.98-1.14 3.8-2.51 7.54-3.92 11.25.95-3.76 2.26-7.43 3.14-11.21-1.33-.61-2.61-1.31-3.95-1.88-1.73 2.81-3.97 5.37-5.02 8.54-.59.97-1.58 1.55-2.47 2.21 2.14-2.81 3.48-6.07 5.18-9.15l.74.34c.19-.81.56-2.43.75-3.24-3.28.13-3.89 4.49-6.69 5.85-.32.76-.66 1.5-1.04 2.22-.04-.4-.13-1.2-.17-1.6 2.26-2.77 4.6-5.48 6.86-8.25zM68.86 82.97c2.72-1.05 5.37-2.27 7.75-3.96 2.57 2.48 4.64 5.4 6.54 8.41-2.87-2.02-3.93-6.56-7.83-6.81.67 1.6 1.45 3.15 2.19 4.73l.59-.95c.4 2.9 2.32 5.08 3.88 7.42-4.02-2.39-4.14-8.01-8.27-10.14-.57 4.53 4.14 7.68 3.98 12.16-1.79-3.58-3.28-7.3-5.05-10.89-.46.25-1.37.75-1.82 1.01.85 2.42 1.69 4.88 2.06 7.43-1.24-2.85-2.03-5.94-4.02-8.41zM42.19 84.95c-.24-1.36.31-2 1.65-1.91.23 1.36-.31 1.99-1.65 1.91zM83.99 82.98c1.34-.15 1.95.45 1.8 1.81-1.37.13-1.97-.47-1.8-1.81z"/><path d="M50.01 93.75c1.17-3.81 3.49-7.22 5.34-10.75-.56 4.08-2.92 7.54-5.34 10.75zM66.6 98.05c-.7-4.82-2.57-10.04-.85-14.77.33 4.92.12 9.87.85 14.77zM40.25 86.28c.54.53.54.53 0 0zM59.56 86.77c.57 3.16-.89 6.23-1.32 9.33.13-1.75.33-3.5.54-5.24.2-1.38.46-2.74.78-4.09z"/></g></g></svg>
