<svg xmlns="http://www.w3.org/2000/svg" viewBox="0 0 324 324" shape-rendering="geometricPrecision"><g transform="translate(0, 324) scale(1, -1)scale(1.265625,1.265625)" stroke-width=".05%"><g fill="#452c5f"><path d=" M 18.12 19.67 C 20.35 18.97 22.65 18.44 25.00 18.55 C 37.92 18.64 50.83 18.77 63.75 18.83 C 63.86 23.81 63.83 28.80 63.82 33.78 C 77.84 33.87 91.85 33.88 105.87 33.78 C 105.89 28.70 105.87 23.61 105.91 18.52 C 120.97 18.58 136.02 18.54 151.08 18.54 C 151.09 23.63 151.08 28.72 151.11 33.82 C 165.12 33.83 179.13 33.92 193.13 33.77 C 193.22 28.78 193.20 23.79 193.30 18.80 C 207.94 18.95 222.59 18.32 237.23 18.77 C 238.82 20.82 237.65 23.64 237.84 26.01 C 237.69 38.25 237.78 50.48 237.72 62.72 C 232.75 62.77 227.79 62.76 222.82 62.80 C 222.75 76.79 222.78 90.78 222.81 104.77 C 227.97 104.90 233.13 104.87 238.29 104.82 C 238.24 119.91 238.31 135.00 238.29 150.09 C 233.09 150.19 227.89 149.76 222.70 150.25 C 222.86 164.11 222.76 177.98 222.77 191.85 C 227.76 191.92 232.75 191.90 237.74 191.92 C 237.86 206.64 237.68 221.36 237.80 236.09 C 234.42 237.66 230.65 237.34 227.03 237.25 C 215.41 237.50 203.84 236.26 192.21 236.77 C 192.21 231.84 192.23 226.91 192.22 221.98 C 178.21 221.55 164.18 221.70 150.16 221.89 C 150.07 227.04 150.10 232.18 150.09 237.33 C 135.08 237.24 120.06 237.33 105.05 237.29 C 105.13 232.09 105.50 226.86 104.73 221.68 C 90.77 221.88 76.81 221.63 62.86 221.84 C 62.83 226.84 62.86 231.84 62.82 236.84 C 47.93 236.24 33.00 238.19 18.16 236.87 C 17.60 234.27 17.81 231.60 17.80 228.96 C 17.95 216.98 17.58 204.98 18.08 192.99 C 23.11 192.87 28.13 192.92 33.16 192.84 C 33.19 178.89 33.19 164.93 33.20 150.98 C 28.02 150.70 22.83 150.81 17.65 150.77 C 17.76 135.79 17.69 120.80 17.70 105.82 C 22.83 105.85 27.97 105.89 33.11 105.76 C 33.32 91.75 33.16 77.74 33.21 63.73 C 28.24 63.65 23.27 63.68 18.29 63.71 C 18.07 49.03 18.43 34.35 18.12 19.67 Z"/></g></g><g transform="scale(1.265625,1.265625)" stroke-width=".05%"><g fill="#c3c0bf"><path d=" M 164.43 79.85 C 170.99 77.57 176.47 73.12 181.09 68.05 C 183.79 69.28 185.91 71.24 185.93 74.38 C 186.13 74.63 186.53 75.12 186.73 75.37 L 187.20 75.92 C 187.65 80.88 187.28 85.91 188.19 90.82 C 189.71 101.51 190.05 112.28 190.72 123.03 C 191.95 133.32 191.98 143.73 193.44 154.01 C 193.83 159.29 193.99 164.61 194.00 169.91 C 187.04 178.15 175.17 177.04 165.65 179.55 C 175.70 178.39 187.00 177.79 194.74 170.40 C 194.44 159.91 193.39 149.48 192.40 139.04 C 192.33 127.04 190.19 115.18 190.07 103.18 C 189.57 99.03 189.31 94.85 189.25 90.67 C 191.32 90.71 193.40 90.72 195.48 90.73 C 196.99 99.09 195.62 107.67 197.45 115.99 C 198.56 121.63 198.96 127.36 198.85 133.11 C 199.68 141.89 201.17 150.60 201.84 159.40 C 203.49 168.07 202.94 177.00 205.03 185.58 C 196.06 186.70 187.59 182.78 178.74 182.44 C 187.62 183.60 196.40 187.37 205.46 185.84 C 203.84 174.24 202.88 162.58 201.32 150.98 C 200.99 143.61 199.07 136.38 199.20 128.98 C 199.21 123.32 198.34 117.70 197.28 112.16 C 196.19 106.06 196.89 99.85 196.41 93.71 C 197.67 93.99 198.93 94.27 200.21 94.53 C 201.22 104.30 201.94 114.09 202.68 123.87 C 203.44 134.07 204.24 144.26 204.87 154.46 C 205.04 166.67 208.14 178.74 207.07 190.97 C 198.51 190.74 190.58 187.21 182.23 185.75 C 171.10 183.21 159.02 180.00 147.87 183.98 C 140.16 186.24 132.98 190.71 128.52 197.51 C 127.98 194.02 128.23 190.50 128.16 186.99 C 127.18 176.33 128.07 165.63 127.68 154.95 C 128.01 149.60 127.30 143.88 129.63 138.91 C 129.29 138.83 128.61 138.65 128.27 138.57 L 128.27 138.23 C 128.71 137.97 129.59 137.45 130.03 137.19 C 130.99 133.66 132.02 130.04 131.95 126.36 C 131.05 124.75 129.67 123.53 128.35 122.28 C 136.23 121.90 144.16 119.01 150.16 113.87 C 150.62 114.17 151.09 114.48 151.55 114.80 C 151.38 115.74 150.01 117.60 151.52 118.27 C 153.96 119.78 156.71 120.72 159.48 121.44 C 159.02 118.36 158.04 115.40 156.73 112.59 C 154.97 112.87 153.15 113.34 151.50 112.41 C 156.74 109.48 159.22 103.70 162.02 98.70 C 162.17 100.24 162.33 101.79 162.50 103.34 C 166.45 105.26 170.86 106.15 175.25 105.81 C 173.79 102.30 170.53 100.02 167.76 97.59 C 165.81 97.55 163.74 99.42 161.96 98.14 C 163.01 94.57 164.17 91.01 164.29 87.25 C 165.40 88.29 166.53 89.31 167.67 90.33 C 173.30 89.45 178.71 87.66 184.26 86.41 C 180.26 83.13 174.80 83.10 169.98 81.94 C 167.52 81.13 166.13 83.80 164.36 84.91 C 164.37 83.22 164.40 81.53 164.43 79.85 M 141.26 120.30 C 140.32 121.88 139.45 123.51 138.54 125.11 C 141.75 127.83 144.27 131.90 148.54 132.94 C 148.57 129.46 147.30 126.19 146.83 122.79 C 145.40 121.15 143.32 120.61 141.26 120.30 Z"/><path d=" M 87.24 88.61 C 88.57 88.40 89.84 87.93 91.12 87.54 C 92.15 97.02 96.06 106.49 103.79 112.45 C 102.09 113.25 100.27 112.91 98.51 112.47 C 97.22 115.25 96.43 118.25 96.60 121.34 C 99.41 120.44 102.21 119.28 104.57 117.47 C 104.36 116.87 103.94 115.67 103.74 115.07 C 104.06 114.47 104.38 113.88 104.70 113.28 C 110.30 118.90 118.37 121.17 126.08 121.73 C 125.29 123.11 124.31 124.34 123.02 125.29 C 123.69 130.94 126.30 136.25 126.19 142.02 C 126.26 158.68 126.06 175.35 126.36 192.00 C 126.24 193.68 128.00 195.74 126.26 197.02 C 122.33 190.00 114.68 185.81 107.01 184.17 C 98.75 183.03 90.33 182.31 82.08 184.01 C 74.21 185.86 66.28 187.46 58.50 189.71 C 55.20 190.82 51.71 190.82 48.29 191.10 C 47.81 177.01 50.12 162.99 50.83 148.93 C 51.74 143.31 50.94 137.59 51.86 131.97 C 52.63 127.30 52.39 122.53 53.05 117.84 C 53.69 110.44 55.14 103.09 55.03 95.64 C 55.27 94.63 55.93 94.12 57.01 94.12 C 67.06 93.34 77.58 92.77 86.87 88.55 C 86.96 88.56 87.15 88.59 87.24 88.61 M 80.24 104.64 C 80.24 104.85 80.23 105.28 80.23 105.49 C 83.67 106.67 87.33 105.26 90.88 105.61 C 91.86 103.68 92.64 101.67 93.34 99.63 C 92.23 98.97 91.12 98.33 90.02 97.68 C 90.13 97.25 90.37 96.39 90.48 95.95 C 86.44 98.01 83.39 101.47 80.24 104.64 M 108.86 123.09 C 107.54 126.15 107.68 129.59 107.67 132.86 C 111.42 131.93 113.20 128.22 115.88 125.81 C 115.28 123.94 114.69 122.05 113.68 120.35 C 111.98 121.03 109.46 120.97 108.86 123.09 Z"/><path d=" M 47.58 102.58 C 48.52 102.51 49.46 102.48 50.41 102.47 C 47.36 108.02 49.41 114.83 47.58 120.62 L 46.73 120.91 C 46.16 114.89 46.60 108.59 47.58 102.58 Z"/><path d=" M 205.96 104.23 C 203.60 101.81 207.07 102.74 208.15 102.39 C 207.95 105.19 209.65 108.46 207.89 110.94 C 207.59 110.79 207.01 110.49 206.72 110.34 L 207.32 107.88 C 206.79 107.75 205.73 107.50 205.20 107.38 C 206.10 119.49 207.50 131.57 207.90 143.71 C 208.16 143.86 208.68 144.15 208.94 144.29 L 209.66 144.30 C 209.62 141.66 209.28 139.04 209.14 136.40 C 211.50 136.85 211.00 139.28 211.30 140.93 C 212.95 162.45 214.92 183.94 216.89 205.44 C 213.05 206.60 209.01 206.03 205.07 206.14 C 182.11 205.29 159.10 205.47 136.16 204.39 C 135.93 204.94 135.47 206.04 135.25 206.59 C 131.13 206.79 127.01 206.14 122.90 206.77 C 121.09 207.26 119.89 205.74 119.02 204.44 C 96.01 205.42 72.97 205.34 49.95 206.14 C 46.12 206.06 42.19 206.57 38.46 205.41 C 39.91 197.37 40.06 189.18 40.89 181.07 C 42.81 161.34 44.06 141.51 46.20 121.83 L 46.90 121.64 L 47.68 121.84 C 47.02 130.55 46.24 139.26 45.84 147.98 L 46.47 148.48 C 46.69 148.54 47.13 148.67 47.34 148.73 C 47.24 139.78 48.93 130.92 49.18 121.97 C 49.27 117.84 49.74 113.72 50.15 109.61 C 50.94 112.76 51.82 115.89 52.36 119.09 C 50.76 133.02 50.90 147.12 48.74 160.99 C 48.29 165.59 48.96 170.25 48.22 174.84 C 47.48 178.77 47.52 182.77 47.46 186.75 L 46.69 186.32 C 46.60 188.28 46.79 190.36 45.78 192.14 C 45.75 192.48 45.70 193.17 45.67 193.51 L 44.75 193.53 C 44.47 195.53 44.14 197.52 43.69 199.50 C 42.80 193.02 44.32 186.56 44.57 180.09 C 44.95 170.06 46.62 160.09 46.73 150.07 C 46.41 150.03 45.79 149.94 45.48 149.90 C 44.27 165.13 43.03 180.37 41.76 195.59 C 41.17 198.61 41.01 201.69 41.22 204.76 C 50.29 204.68 59.31 203.33 68.39 203.85 C 71.27 204.00 74.15 203.89 77.03 203.74 C 88.39 203.16 99.82 204.10 111.13 202.64 C 108.06 201.86 104.92 201.31 101.74 201.23 C 106.45 201.13 111.13 201.79 115.83 201.74 C 115.21 200.52 113.67 200.25 112.52 199.76 C 106.51 197.95 100.32 196.48 94.03 196.22 C 80.49 196.22 67.18 198.90 53.80 200.56 C 51.66 199.76 49.57 198.86 47.47 197.99 C 47.23 197.09 46.98 196.18 46.76 195.28 C 46.74 194.00 47.01 192.77 47.57 191.60 C 55.26 191.93 62.46 189.00 69.86 187.45 C 82.87 183.80 96.90 182.01 110.13 185.48 C 116.81 188.16 123.57 192.38 126.39 199.34 C 126.22 199.49 125.88 199.78 125.71 199.93 C 124.54 198.97 123.36 198.02 122.19 197.07 C 122.41 197.98 122.63 198.89 122.85 199.80 C 122.16 200.64 121.47 201.48 120.78 202.32 C 120.17 202.26 118.94 202.15 118.33 202.09 C 117.44 203.55 120.87 204.03 121.99 204.22 C 126.06 204.99 130.45 205.42 134.32 203.60 L 134.57 203.52 L 134.73 203.49 C 144.10 202.19 153.56 203.77 162.97 203.50 C 171.42 203.23 179.86 204.13 188.30 203.92 C 197.33 203.16 206.32 205.29 215.32 204.31 C 214.21 203.52 213.10 202.73 211.99 201.95 C 212.54 201.91 213.65 201.84 214.20 201.80 C 214.16 199.15 214.09 196.50 213.92 193.85 C 213.76 191.12 213.29 188.42 213.02 185.70 C 211.85 172.49 210.94 159.27 209.79 146.06 C 209.60 146.09 209.22 146.14 209.03 146.16 C 207.94 149.30 209.06 152.74 209.18 155.98 C 209.94 166.23 210.73 176.48 211.69 186.71 C 211.38 187.27 210.74 188.39 210.42 188.94 C 209.54 183.48 208.78 178.00 207.86 172.54 C 207.24 167.44 207.61 162.25 206.55 157.21 C 205.46 151.22 205.70 145.10 205.09 139.05 C 204.77 133.59 203.92 128.17 203.88 122.70 C 204.25 117.71 203.95 112.67 204.84 107.73 L 205.22 107.31 C 206.58 106.48 206.82 105.46 205.96 104.23 Z"/><path d=" M 208.04 112.76 L 208.75 112.86 C 210.00 120.84 209.94 129.39 210.85 137.58 L 209.18 136.40 C 208.25 128.61 207.70 120.77 207.28 112.94 L 208.04 112.76 Z"/><path d=" M 149.20 184.86 C 156.06 183.80 163.06 183.79 169.95 184.52 C 176.65 185.56 183.16 187.53 189.76 189.07 C 195.68 190.38 201.32 193.47 207.55 192.61 C 208.46 194.15 209.38 195.69 210.14 197.31 L 210.11 198.04 C 206.89 198.79 203.68 199.55 200.49 200.37 C 195.98 199.52 191.36 199.63 186.88 198.61 C 180.37 197.18 173.70 196.81 167.07 196.38 C 157.15 195.46 147.37 198.24 138.07 201.39 C 137.40 201.42 136.73 201.45 136.06 201.48 C 135.15 200.27 134.24 199.06 133.33 197.85 C 133.83 196.67 134.32 195.49 134.82 194.32 C 133.86 194.74 131.95 195.59 131.00 196.01 C 133.10 192.11 137.16 190.13 140.59 187.61 C 143.11 185.83 146.21 185.29 149.20 184.86 Z"/><path d=" M 46.27 202.01 C 52.59 201.56 58.93 201.30 65.27 201.32 L 66.36 202.82 C 59.67 202.73 52.84 203.67 46.27 202.01 Z"/><path d=" M 191.12 201.45 C 197.36 201.09 203.59 201.72 209.82 202.02 C 203.19 203.39 196.39 203.03 189.68 202.76 L 191.12 201.45 Z"/></g><g fill="#9d8e6c"><path d=" M 127.58 31.77 C 128.70 35.94 129.27 40.22 130.38 44.39 C 129.55 45.42 128.72 46.45 127.89 47.48 C 126.94 46.58 125.96 45.68 125.10 44.69 C 125.48 40.33 127.09 36.14 127.58 31.77 Z"/><path d=" M 108.92 40.19 C 110.80 42.04 112.63 43.94 114.45 45.85 C 114.23 46.69 113.81 48.37 113.60 49.20 C 112.38 48.85 111.17 48.48 109.96 48.09 C 109.68 45.45 109.30 42.82 108.92 40.19 Z"/><path d=" M 140.81 46.00 C 142.66 44.02 144.51 42.06 146.40 40.12 C 146.17 42.69 145.91 45.25 145.60 47.80 C 144.49 48.35 143.37 48.89 142.25 49.41 C 141.77 48.27 141.29 47.13 140.81 46.00 Z"/><path d=" M 122.32 50.42 C 140.47 47.05 159.51 60.70 162.46 78.86 C 166.01 95.63 155.14 113.83 138.79 118.86 C 127.18 122.89 113.38 120.13 104.41 111.65 C 93.08 102.06 89.31 84.82 95.38 71.32 C 100.22 60.51 110.48 52.12 122.32 50.42 M 122.55 53.68 C 112.72 55.69 103.31 61.80 99.20 71.23 C 90.99 86.00 97.86 106.58 113.02 113.82 C 125.99 120.99 143.52 117.12 152.60 105.52 C 159.33 97.11 162.19 85.09 157.95 74.90 C 153.27 60.55 137.32 51.25 122.55 53.68 Z"/><path d=" M 97.92 51.65 C 99.77 52.48 101.61 53.32 103.45 54.17 C 102.74 55.94 101.16 56.82 99.43 57.37 C 98.94 55.46 98.45 53.55 97.92 51.65 Z"/><path d=" M 152.18 53.86 C 153.94 53.14 155.70 52.42 157.46 51.71 C 156.93 53.58 156.38 55.45 155.83 57.32 C 153.90 56.97 152.80 55.61 152.18 53.86 Z"/><path d=" M 123.28 61.37 C 136.04 58.47 149.27 68.54 151.71 81.05 C 154.99 95.93 140.89 111.11 125.94 110.07 C 113.67 108.60 102.96 97.53 103.11 84.95 C 103.53 73.76 112.41 63.71 123.28 61.37 Z"/><path d=" M 82.42 66.73 C 85.02 66.96 87.62 67.24 90.22 67.58 C 90.59 68.32 91.32 69.80 91.69 70.55 C 90.72 71.19 89.75 71.84 88.78 72.48 C 86.57 70.67 84.48 68.71 82.42 66.73 Z"/><path d=" M 165.04 67.71 C 167.69 67.23 170.36 66.90 173.05 66.68 C 171.11 68.62 169.12 70.51 167.11 72.36 C 166.03 71.87 164.96 71.38 163.89 70.89 C 164.27 69.83 164.65 68.77 165.04 67.71 Z"/><path d=" M 73.94 85.54 C 78.25 84.50 82.60 83.53 86.99 82.86 C 87.91 83.56 88.79 84.30 89.65 85.08 C 88.83 86.24 88.03 87.42 87.24 88.61 C 87.15 88.59 86.96 88.56 86.87 88.55 C 82.72 86.94 78.30 86.30 73.94 85.54 Z"/><path d=" M 165.77 85.47 C 166.77 84.53 167.78 83.59 168.79 82.65 C 172.86 83.93 177.13 84.36 181.24 85.51 C 176.96 86.33 172.71 87.26 168.45 88.17 C 167.56 87.27 166.67 86.37 165.77 85.47 Z"/><path d=" M 82.48 104.14 C 85.03 101.82 87.72 97.27 91.69 99.75 C 91.39 100.52 90.78 102.06 90.48 102.83 C 87.88 103.60 85.15 103.76 82.48 104.14 Z"/><path d=" M 163.78 99.83 C 164.87 99.48 165.96 99.17 167.07 98.90 C 169.38 100.24 171.08 102.39 173.00 104.20 C 170.36 103.84 167.72 103.43 165.07 103.11 C 164.64 102.02 164.21 100.92 163.78 99.83 Z"/><path d=" M 99.29 113.58 C 101.14 113.96 102.54 115.11 103.52 116.70 C 101.74 117.52 99.94 118.31 98.15 119.10 C 98.55 117.26 98.92 115.42 99.29 113.58 Z"/><path d=" M 153.15 114.66 C 154.08 114.39 155.01 114.11 155.95 113.83 C 156.41 115.56 156.86 117.28 157.31 119.01 C 155.66 118.35 154.01 117.68 152.37 116.99 C 152.56 116.41 152.95 115.25 153.15 114.66 Z"/><path d=" M 110.09 122.94 C 111.21 122.44 112.33 121.93 113.45 121.43 C 113.74 122.60 113.99 123.78 114.19 124.97 C 112.80 127.17 110.73 128.84 108.87 130.62 C 109.29 128.07 109.74 125.51 110.09 122.94 Z"/><path d=" M 142.17 121.87 C 143.30 122.06 144.41 122.36 145.50 122.77 C 145.86 125.44 146.16 128.12 146.42 130.80 C 144.53 128.21 138.99 125.46 142.17 121.87 Z"/><path d=" M 124.92 126.06 C 125.88 125.22 126.84 124.38 127.81 123.54 C 128.63 124.38 129.46 125.21 130.29 126.05 C 129.63 130.11 128.43 134.10 128.27 138.23 L 128.27 138.57 L 128.27 138.99 C 126.25 134.97 126.12 130.35 124.92 126.06 Z"/></g></g></svg>
